<svg width="415" height="103" viewBox="0 0 415 103" fill="none" xmlns="http://www.w3.org/2000/svg">
<path d="M19.5334 63.56H48.5254V77H0.909375V64.52L29.7094 23.048H0.909375V9.608H48.5254V22.088L19.5334 63.56ZM113.969 23.432L80.3689 102.44H62.7049L74.9929 75.176L53.2009 23.432H71.5369L83.9209 56.936L96.2089 23.432H113.969ZM136.321 31.016C137.857 28.52 140.065 26.504 142.945 24.968C145.825 23.432 149.121 22.664 152.833 22.664C157.249 22.664 161.249 23.784 164.833 26.024C168.417 28.264 171.233 31.464 173.281 35.624C175.393 39.784 176.449 44.616 176.449 50.12C176.449 55.624 175.393 60.488 173.281 64.712C171.233 68.872 168.417 72.104 164.833 74.408C161.249 76.648 157.249 77.768 152.833 77.768C149.057 77.768 145.761 77.032 142.945 75.56C140.129 74.024 137.921 72.008 136.321 69.512V77H119.905V5.96H136.321V31.016ZM159.745 50.12C159.745 46.024 158.593 42.824 156.289 40.52C154.049 38.152 151.265 36.968 147.937 36.968C144.673 36.968 141.889 38.152 139.585 40.52C137.345 42.888 136.225 46.12 136.225 50.216C136.225 54.312 137.345 57.544 139.585 59.912C141.889 62.28 144.673 63.464 147.937 63.464C151.201 63.464 153.985 62.28 156.289 59.912C158.593 57.48 159.745 54.216 159.745 50.12ZM235.557 49.352C235.557 50.888 235.461 52.488 235.269 54.152H198.117C198.373 57.48 199.429 60.04 201.285 61.832C203.205 63.56 205.541 64.424 208.293 64.424C212.389 64.424 215.237 62.696 216.837 59.24H234.309C233.413 62.76 231.781 65.928 229.413 68.744C227.109 71.56 224.197 73.768 220.677 75.368C217.157 76.968 213.221 77.768 208.869 77.768C203.621 77.768 198.949 76.648 194.853 74.408C190.757 72.168 187.557 68.968 185.253 64.808C182.949 60.648 181.797 55.784 181.797 50.216C181.797 44.648 182.917 39.784 185.157 35.624C187.461 31.464 190.661 28.264 194.757 26.024C198.853 23.784 203.557 22.664 208.869 22.664C214.053 22.664 218.661 23.752 222.693 25.928C226.725 28.104 229.861 31.208 232.101 35.24C234.405 39.272 235.557 43.976 235.557 49.352ZM218.757 45.032C218.757 42.216 217.797 39.976 215.877 38.312C213.957 36.648 211.557 35.816 208.677 35.816C205.925 35.816 203.589 36.616 201.669 38.216C199.813 39.816 198.661 42.088 198.213 45.032H218.757ZM252.378 17.864C249.498 17.864 247.13 17.032 245.274 15.368C243.482 13.64 242.586 11.528 242.586 9.032C242.586 6.472 243.482 4.36 245.274 2.696C247.13 0.967995 249.498 0.103994 252.378 0.103994C255.194 0.103994 257.498 0.967995 259.29 2.696C261.146 4.36 262.074 6.472 262.074 9.032C262.074 11.528 261.146 13.64 259.29 15.368C257.498 17.032 255.194 17.864 252.378 17.864ZM260.634 83.912C260.634 90.504 258.97 95.24 255.642 98.12C252.314 101.064 247.674 102.536 241.722 102.536H235.29V88.616H239.226C241.018 88.616 242.298 88.264 243.066 87.56C243.834 86.856 244.218 85.704 244.218 84.104V23.432H260.634V83.912ZM269.172 50.12C269.172 44.616 270.196 39.784 272.244 35.624C274.356 31.464 277.204 28.264 280.788 26.024C284.372 23.784 288.372 22.664 292.788 22.664C296.308 22.664 299.508 23.4 302.388 24.872C305.332 26.344 307.636 28.328 309.3 30.824V5.96H325.716V77H309.3V69.32C307.764 71.88 305.556 73.928 302.676 75.464C299.86 77 296.564 77.768 292.788 77.768C288.372 77.768 284.372 76.648 280.788 74.408C277.204 72.104 274.356 68.872 272.244 64.712C270.196 60.488 269.172 55.624 269.172 50.12ZM309.3 50.216C309.3 46.12 308.148 42.888 305.844 40.52C303.604 38.152 300.852 36.968 297.588 36.968C294.324 36.968 291.54 38.152 289.236 40.52C286.996 42.824 285.876 46.024 285.876 50.12C285.876 54.216 286.996 57.48 289.236 59.912C291.54 62.28 294.324 63.464 297.588 63.464C300.852 63.464 303.604 62.28 305.844 59.912C308.148 57.544 309.3 54.312 309.3 50.216ZM388.089 49.352C388.089 50.888 387.993 52.488 387.801 54.152H350.649C350.905 57.48 351.961 60.04 353.817 61.832C355.737 63.56 358.073 64.424 360.825 64.424C364.921 64.424 367.769 62.696 369.369 59.24H386.841C385.945 62.76 384.313 65.928 381.945 68.744C379.641 71.56 376.729 73.768 373.209 75.368C369.689 76.968 365.753 77.768 361.401 77.768C356.153 77.768 351.481 76.648 347.385 74.408C343.289 72.168 340.089 68.968 337.785 64.808C335.481 60.648 334.329 55.784 334.329 50.216C334.329 44.648 335.449 39.784 337.689 35.624C339.993 31.464 343.193 28.264 347.289 26.024C351.385 23.784 356.089 22.664 361.401 22.664C366.585 22.664 371.193 23.752 375.225 25.928C379.257 28.104 382.393 31.208 384.633 35.24C386.937 39.272 388.089 43.976 388.089 49.352ZM371.289 45.032C371.289 42.216 370.329 39.976 368.409 38.312C366.489 36.648 364.089 35.816 361.209 35.816C358.457 35.816 356.121 36.616 354.201 38.216C352.345 39.816 351.193 42.088 350.745 45.032H371.289Z" fill="black"/>
<path d="M404.429 77.768C401.549 77.768 399.181 76.936 397.325 75.272C395.533 73.544 394.637 71.432 394.637 68.936C394.637 66.376 395.533 64.232 397.325 62.504C399.181 60.776 401.549 59.912 404.429 59.912C407.245 59.912 409.549 60.776 411.341 62.504C413.197 64.232 414.125 66.376 414.125 68.936C414.125 71.432 413.197 73.544 411.341 75.272C409.549 76.936 407.245 77.768 404.429 77.768Z" fill="#FF0000"/>
</svg>
